<svg xmlns="http://www.w3.org/2000/svg"  viewBox="0 0 64 64" width="48px" height="48px" clip-rule="evenodd" baseProfile="basic"><path d="M37.5,27c3.59,0,6.5,2.91,6.5,6.5c0,0,0,4.79,0,7.179C44,41.408,43.408,42,42.679,42c-0.436,0-0.921,0-1.357,0	C40.592,42,40,41.408,40,40.679V34.5c0-1.925-1.575-3.5-3.5-3.5S33,32.575,33,34.5c0,0,0,4.026,0,6.179	C33,41.408,32.408,42,31.679,42c-0.436,0-0.921,0-1.357,0C29.592,42,29,41.408,29,40.679c0-2.843,0-9.514,0-12.357	C29,27.592,29.592,27,30.321,27c0.436,0,0.921,0,1.357,0C32.408,27,33,27.592,33,28.321v0.495C34.168,27.694,35.752,27,37.5,27z"/><path d="M25,28.34c0,2.847,0,9.474,0,12.321C25,41.4,24.4,42,23.66,42c-0.425,0-0.896,0-1.321,0C21.6,42,21,41.4,21,40.66	c0-2.847,0-9.474,0-12.321C21,27.6,21.6,27,22.34,27c0.425,0,0.896,0,1.321,0C24.4,27,25,27.6,25,28.34z"/><path fill-rule="evenodd" d="M23,20c1.104,0,2,0.896,2,2s-0.896,2-2,2s-2-0.896-2-2S21.896,20,23,20z" clip-rule="evenodd"/><path fill="#060000" d="M32,54c-12.131,0-22-9.869-22-22s9.869-22,22-22s22,9.869,22,22S44.131,54,32,54z M32,14	c-9.925,0-18,8.075-18,18s8.075,18,18,18s18-8.075,18-18S41.925,14,32,14z"/></svg>